<?xml version="1.0" encoding="UTF-8" standalone="no"?>
<!-- Created with Inkscape (http://www.inkscape.org/) -->

<svg
   version="1.1"
   id="svg2"
   width="2560"
   height="1440"
   viewBox="0 0 2560 1440"
   xmlns="http://www.w3.org/2000/svg"
   xmlns:svg="http://www.w3.org/2000/svg">
  <defs
     id="defs6">
    <clipPath
       clipPathUnits="userSpaceOnUse"
       id="clipPath18">
      <path
         d="M 0,0 H 1920 V 1080 H 0 Z"
         id="path16" />
    </clipPath>
  </defs>
  <g
     id="g8"
     transform="matrix(1.3333333,0,0,-1.3333333,0,1440)">
    <g
       id="g10" />
    <g
       id="g12">
      <g
         id="g14"
         clip-path="url(#clipPath18)">
        <path
           d="M 0,1080 H 1920 V 0 H 0 Z"
           style="fill:#000000;fill-opacity:1;fill-rule:nonzero;stroke:none"
           id="path20" />
        <path
           d="m 177.6904,1016.108 c -0.1159,0.024 -0.2475,0 -0.374,-0.068 L 94.47515,968.2185 c -0.9248,-0.5331 -1.00709,-1.84 -0.153,-2.482 l 26.53705,-20.094 c 0.642,-0.4896 1.5681,-0.3646 2.074,0.272 l 55.0632,69.3435 c 0.2734,0.342 0.0418,0.775 -0.306,0.85 z m 14.2801,0 c -0.3486,-0.074 -0.5795,-0.508 -0.306,-0.85 l 55.0631,-69.3435 c 0.506,-0.6365 1.415,-0.7617 2.057,-0.272 l 26.5371,20.094 c 0.8541,0.6419 0.772,1.9489 -0.153,2.482 l -82.8242,47.8215 c -0.1279,0.073 -0.2578,0.092 -0.374,0.068 z m -7.1401,-0.153 c -0.4352,0 -0.8738,-0.186 -1.173,-0.561 l -55.0801,-69.3605 c -0.778,-0.9738 -0.0729,-2.431 1.173,-2.431 h 110.1603 c 1.2512,0 1.9343,1.4518 1.156,2.431 l -55.0802,69.3605 c -0.2992,0.375 -0.7211,0.561 -1.156,0.561 z M 92.09514,961.6735 c -0.81167,0.0592 -1.61499,-0.5699 -1.615,-1.496 v -90.2703 c 0,-0.5821 0.8024,-0.7255 1.02,-0.187 l 27.84606,70.2442 c 0.2448,0.6202 0.0572,1.3261 -0.476,1.734 l -25.99306,19.6691 c -0.24616,0.1863 -0.51148,0.2863 -0.782,0.306 z m 185.47056,0 c -0.2705,-0.0195 -0.5529,-0.121 -0.799,-0.306 l -25.976,-19.6691 c -0.5332,-0.408 -0.7378,-1.1138 -0.493,-1.734 l 27.846,-70.2442 c 0.2176,-0.544 1.02,-0.3951 1.02,0.187 v 90.2703 c 0,0.9262 -0.7863,1.5545 -1.598,1.496 z M 132.0453,939.2504 c -1.1533,0 -1.874,-1.2484 -1.292,-2.244 l 52.7851,-89.9473 c 0.5767,-0.9846 1.9904,-0.9847 2.567,0 l 52.7852,89.9473 c 0.5821,0.9956 -0.1217,2.244 -1.275,2.244 z m -7.8881,-1.258 c -0.5324,-0.0408 -1.0439,-0.3556 -1.275,-0.935 L 92.58814,860.6422 c -0.34816,-0.8759 0.19165,-1.8598 1.12201,-2.023 l 83.84425,-14.8071 c 1.2567,-0.223 2.1889,1.1282 1.547,2.227 l -53.5502,91.2223 c -0.3155,0.5359 -0.8614,0.7717 -1.394,0.731 z m 121.3294,0 c -0.5324,0.0408 -1.081,-0.1951 -1.394,-0.731 l -53.5331,-91.2223 c -0.642,-1.0988 0.2958,-2.4502 1.547,-2.227 l 83.8272,14.8071 c 0.9303,0.1632 1.4702,1.1473 1.122,2.023 l -30.2941,76.4152 c -0.2284,0.5794 -0.7427,0.8942 -1.275,0.935 z M 98.92916,853.2812 c -0.58208,0.1033 -0.88537,-0.6753 -0.374,-0.969 L 180.4104,805.052 c 0.9956,-0.5766 2.227,0.1388 2.227,1.292 v 30.8891 c 0,0.7235 -0.5114,1.3538 -1.224,1.479 z m 171.78554,0 -82.4842,-14.5691 c -0.7127,-0.1251 -1.224,-0.7554 -1.2241,-1.479 V 806.344 c 0,-1.1478 1.2369,-1.8633 2.2271,-1.292 l 81.8552,47.2602 c 0.5114,0.2937 0.2135,1.0723 -0.374,0.969 z"
           style="fill:#ffffff;fill-opacity:1;fill-rule:nonzero;stroke:none"
           id="path22" />
        <path
           d="m 1761.731,1016.108 c -0.116,0.024 -0.248,0 -0.374,-0.068 l -82.841,-47.8215 c -0.925,-0.5331 -1.007,-1.84 -0.153,-2.482 l 26.537,-20.094 c 0.642,-0.4896 1.568,-0.3646 2.074,0.272 l 55.063,69.3435 c 0.273,0.342 0.042,0.775 -0.306,0.85 z m 14.28,0 c -0.349,-0.074 -0.579,-0.508 -0.306,-0.85 l 55.063,-69.3435 c 0.506,-0.6365 1.415,-0.7616 2.057,-0.272 l 26.537,20.094 c 0.854,0.6419 0.772,1.9489 -0.153,2.482 l -82.824,47.8215 c -0.128,0.073 -0.258,0.092 -0.374,0.068 z m -7.14,-0.153 c -0.435,0 -0.874,-0.186 -1.173,-0.561 l -55.08,-69.3605 c -0.778,-0.9738 -0.073,-2.431 1.173,-2.431 h 110.16 c 1.251,0 1.934,1.4518 1.156,2.431 l -55.08,69.3605 c -0.299,0.375 -0.721,0.561 -1.156,0.561 z m -92.735,-54.2815 c -0.812,0.0592 -1.615,-0.5699 -1.615,-1.496 v -90.2703 c 0,-0.5821 0.802,-0.7255 1.02,-0.187 l 27.846,70.2442 c 0.245,0.6202 0.057,1.3261 -0.476,1.734 l -25.993,19.6691 c -0.246,0.1863 -0.512,0.2863 -0.782,0.306 z m 185.47,0 c -0.27,-0.0195 -0.553,-0.121 -0.799,-0.306 l -25.976,-19.6691 c -0.533,-0.408 -0.738,-1.1138 -0.493,-1.734 l 27.846,-70.2442 c 0.218,-0.544 1.02,-0.3951 1.02,0.187 v 90.2703 c 0,0.9262 -0.786,1.5545 -1.598,1.496 z m -145.52,-22.4231 c -1.153,0 -1.874,-1.2484 -1.292,-2.244 l 52.785,-89.9473 c 0.577,-0.9846 1.99,-0.9847 2.567,0 l 52.785,89.9473 c 0.582,0.9956 -0.122,2.244 -1.275,2.244 z m -7.888,-1.258 c -0.533,-0.0408 -1.044,-0.3556 -1.275,-0.935 l -30.294,-76.4152 c -0.348,-0.8759 0.191,-1.8598 1.122,-2.023 l 83.844,-14.8071 c 1.257,-0.223 2.189,1.1282 1.547,2.227 l -53.55,91.2223 c -0.316,0.5359 -0.862,0.7717 -1.394,0.731 z m 121.329,0 c -0.532,0.0408 -1.081,-0.1951 -1.394,-0.731 L 1774.6,846.0391 c -0.642,-1.0988 0.296,-2.4502 1.547,-2.227 l 83.827,14.8071 c 0.931,0.1632 1.47,1.1473 1.122,2.023 l -30.294,76.4152 c -0.228,0.5794 -0.743,0.8942 -1.275,0.935 z M 1682.97,853.2812 c -0.582,0.1033 -0.886,-0.6753 -0.374,-0.969 l 81.855,-47.2602 c 0.996,-0.5766 2.227,0.1388 2.227,1.292 v 30.8891 c 0,0.7235 -0.511,1.3538 -1.224,1.479 z m 171.785,0 -82.484,-14.5691 c -0.713,-0.1251 -1.224,-0.7554 -1.224,-1.479 V 806.344 c 0,-1.1478 1.237,-1.8633 2.227,-1.292 l 81.855,47.2602 c 0.512,0.2937 0.214,1.0723 -0.374,0.969 z"
           style="fill:#ffffff;fill-opacity:1;fill-rule:nonzero;stroke:none"
           id="path24" />
        <path
           d="m 1761.731,289.2122 c -0.116,0.0247 -0.248,0.004 -0.374,-0.068 l -82.841,-47.8211 c -0.925,-0.5332 -1.007,-1.8401 -0.153,-2.4821 l 26.537,-20.094 c 0.642,-0.4896 1.568,-0.3645 2.074,0.272 l 55.063,69.3432 c 0.273,0.3427 0.042,0.7758 -0.306,0.85 z m 14.28,0 c -0.349,-0.0734 -0.579,-0.5073 -0.306,-0.85 l 55.063,-69.3432 c 0.506,-0.6365 1.415,-0.7616 2.057,-0.272 l 26.537,20.094 c 0.854,0.642 0.772,1.9489 -0.153,2.4821 l -82.824,47.8211 c -0.128,0.0735 -0.258,0.0925 -0.374,0.068 z m -7.14,-0.153 c -0.435,0 -0.874,-0.1856 -1.173,-0.561 l -55.08,-69.3602 c -0.778,-0.9738 -0.073,-2.4309 1.173,-2.431 h 110.16 c 1.251,0 1.934,1.4518 1.156,2.431 l -55.08,69.3602 c -0.299,0.3754 -0.721,0.5611 -1.156,0.561 z m -92.735,-54.2812 c -0.812,0.0592 -1.615,-0.5698 -1.615,-1.496 v -90.2703 c 0,-0.5821 0.802,-0.7255 1.02,-0.187 l 27.846,70.2443 c 0.245,0.6201 0.057,1.326 -0.476,1.734 l -25.993,19.669 c -0.246,0.1864 -0.512,0.2863 -0.782,0.306 z m 185.47,0 c -0.27,-0.0194 -0.553,-0.121 -0.799,-0.306 l -25.976,-19.669 c -0.533,-0.408 -0.738,-1.1139 -0.493,-1.734 l 27.846,-70.2443 c 0.218,-0.544 1.02,-0.3951 1.02,0.187 v 90.2703 c 0,0.9262 -0.786,1.5545 -1.598,1.496 z m -145.52,-22.423 c -1.153,0 -1.874,-1.2485 -1.292,-2.244 l 52.785,-89.9473 c 0.577,-0.9847 1.99,-0.9848 2.567,0 l 52.785,89.9473 c 0.582,0.9955 -0.122,2.244 -1.275,2.244 z m -7.888,-1.258 c -0.533,-0.0408 -1.044,-0.3557 -1.275,-0.935 l -30.294,-76.4153 c -0.348,-0.8758 0.191,-1.8598 1.122,-2.023 l 83.844,-14.807 c 1.257,-0.2231 2.189,1.1281 1.547,2.227 l -53.55,91.2223 c -0.316,0.5358 -0.862,0.7717 -1.394,0.731 z m 121.329,0 c -0.532,0.0408 -1.081,-0.1952 -1.394,-0.731 L 1774.6,119.1437 c -0.642,-1.0989 0.296,-2.4503 1.547,-2.227 l 83.827,14.807 c 0.931,0.1632 1.471,1.1474 1.122,2.023 l -30.294,76.4153 c -0.228,0.5793 -0.743,0.8942 -1.275,0.935 z M 1682.97,126.3857 c -0.582,0.1033 -0.886,-0.6753 -0.374,-0.969 l 81.855,-47.26017 c 0.996,-0.57664 2.227,0.13877 2.227,1.292 v 30.88907 c 0,0.7236 -0.511,1.3538 -1.224,1.479 z m 171.785,0 -82.484,-14.5691 c -0.713,-0.1251 -1.224,-0.7554 -1.224,-1.479 V 79.44853 c 0,-1.14784 1.237,-1.86327 2.227,-1.292 l 81.855,47.26017 c 0.512,0.2937 0.214,1.0723 -0.374,0.969 z"
           style="fill:#ffffff;fill-opacity:1;fill-rule:nonzero;stroke:none"
           id="path26" />
        <path
           d="m 177.6904,289.2122 c -0.1159,0.0247 -0.2475,0.004 -0.374,-0.068 L 94.47515,241.3231 c -0.9248,-0.5332 -1.00709,-1.8401 -0.153,-2.4821 l 26.53705,-20.094 c 0.642,-0.4896 1.5681,-0.3645 2.074,0.272 l 55.0632,69.3432 c 0.2734,0.3427 0.0418,0.7758 -0.306,0.85 z m 14.2801,0 c -0.3486,-0.0734 -0.5795,-0.5073 -0.306,-0.85 l 55.0631,-69.3432 c 0.506,-0.6365 1.415,-0.7616 2.057,-0.272 l 26.5371,20.094 c 0.8541,0.642 0.772,1.9489 -0.153,2.4821 l -82.8242,47.8211 c -0.1279,0.0735 -0.2578,0.0925 -0.374,0.068 z m -7.1401,-0.153 c -0.4352,0 -0.8738,-0.1856 -1.173,-0.561 L 128.5773,219.138 c -0.778,-0.9738 -0.0729,-2.4309 1.173,-2.431 h 110.1603 c 1.2512,0 1.9343,1.4518 1.156,2.431 l -55.0802,69.3602 c -0.2992,0.3754 -0.7211,0.5611 -1.156,0.561 z M 92.09514,234.778 c -0.81167,0.0592 -1.61499,-0.5698 -1.615,-1.496 v -90.2703 c 0,-0.5821 0.8024,-0.7255 1.02,-0.187 l 27.84606,70.2443 c 0.2448,0.6201 0.0572,1.326 -0.476,1.734 l -25.99306,19.669 c -0.24616,0.1864 -0.51148,0.2863 -0.782,0.306 z m 185.47056,0 c -0.2705,-0.0194 -0.5529,-0.121 -0.799,-0.306 l -25.976,-19.669 c -0.5332,-0.408 -0.7378,-1.1139 -0.493,-1.734 l 27.846,-70.2443 c 0.2176,-0.544 1.02,-0.3951 1.02,0.187 v 90.2703 c 0,0.9262 -0.7863,1.5545 -1.598,1.496 z M 132.0453,212.355 c -1.1533,0 -1.874,-1.2485 -1.292,-2.244 l 52.7851,-89.9473 c 0.5767,-0.9847 1.9904,-0.9848 2.567,0 l 52.7852,89.9473 c 0.5821,0.9955 -0.1217,2.244 -1.275,2.244 z m -7.8881,-1.258 c -0.5324,-0.0408 -1.0439,-0.3557 -1.275,-0.935 L 92.58814,133.7467 c -0.34816,-0.8758 0.19165,-1.8598 1.12201,-2.023 l 83.84425,-14.807 c 1.2567,-0.2231 2.1889,1.1281 1.547,2.227 l -53.5502,91.2223 c -0.3155,0.5358 -0.8614,0.7717 -1.394,0.731 z m 121.3294,0 c -0.5324,0.0408 -1.081,-0.1952 -1.394,-0.731 l -53.5331,-91.2223 c -0.642,-1.0989 0.2958,-2.4503 1.547,-2.227 l 83.8272,14.807 c 0.9303,0.1632 1.4702,1.1474 1.122,2.023 l -30.2941,76.4153 c -0.2284,0.5793 -0.7427,0.8942 -1.275,0.935 z M 98.92916,126.3857 c -0.58208,0.1033 -0.88537,-0.6753 -0.374,-0.969 L 180.4104,78.15653 c 0.9956,-0.57664 2.227,0.13877 2.227,1.292 v 30.88907 c 0,0.7236 -0.5114,1.3538 -1.224,1.479 z m 171.78554,0 -82.4842,-14.5691 c -0.7127,-0.1251 -1.224,-0.7554 -1.2241,-1.479 V 79.44853 c 0,-1.14784 1.2369,-1.86327 2.2271,-1.292 l 81.8552,47.26017 c 0.5114,0.2937 0.2135,1.0723 -0.374,0.969 z"
           style="fill:#ffffff;fill-opacity:1;fill-rule:nonzero;stroke:none"
           id="path28" />
      </g>
    </g>
  </g>
</svg>
